<svg xmlns="http://www.w3.org/2000/svg" viewBox="4819.24 2604.924 27.147 27.147">
  <defs>
    <style>
      .cls-1 {
        fill: #4e4e4e;
      }
    </style>
  </defs>
  <path id="Path_6" data-name="Path 6" class="cls-1" d="M571.906,0H555.241A5.251,5.251,0,0,0,550,5.241V21.906a5.251,5.251,0,0,0,5.241,5.241h16.665a5.251,5.251,0,0,0,5.241-5.241V5.241A5.251,5.251,0,0,0,571.906,0Zm1.515,3.153h.614V7.78h-4.586V3.194ZM559.7,10.81a4.843,4.843,0,0,1,3.89-2.006,4.79,4.79,0,0,1,3.89,2.006,2.758,2.758,0,0,1,.287.45,4.518,4.518,0,0,1,.614,2.334,4.791,4.791,0,1,1-9.581,0,4.95,4.95,0,0,1,.614-2.334A1.689,1.689,0,0,1,559.7,10.81Zm14.822,11.1a2.639,2.639,0,0,1-2.621,2.621H555.241a2.639,2.639,0,0,1-2.621-2.621V10.81h4.054a4.349,4.349,0,0,0-.246.778,8.189,8.189,0,0,0-.286,2.006,7.411,7.411,0,1,0,14.822,0,6.429,6.429,0,0,0-.286-2.006c-.082-.246-.164-.532-.246-.778h4.054v11.1Z" transform="translate(4269.24 2604.924)"/>
</svg>
