<svg xmlns="http://www.w3.org/2000/svg" viewBox="4762.735 2604.924 21.742 27.207">
  <defs>
    <style>
      .cls-1 {
        fill: #4e4e4e;
      }
    </style>
  </defs>
  <path id="XMLID_6_" class="cls-1" d="M423.506,0C415.849,0,412,5.323,412,9.745a8.681,8.681,0,0,0,.287,2.334,5.059,5.059,0,0,0,2.989,3.6.565.565,0,0,0,.819-.409c.082-.287.246-.983.328-1.269.123-.409.082-.532-.246-.86a3.784,3.784,0,0,1-.86-1.6,5.038,5.038,0,0,1-.2-1.433,7.556,7.556,0,0,1,7.943-7.493c4.34,0,6.715,2.58,6.715,5.978a15.815,15.815,0,0,1-.287,2.866c-.655,3.112-2.457,5.4-4.832,5.4a2.43,2.43,0,0,1-2.539-2.989c.246-.942.573-1.924.86-2.825a9.711,9.711,0,0,0,.573-2.7,2.106,2.106,0,0,0-2.17-2.334c-1.72,0-3.112,1.72-3.112,4.054a5.291,5.291,0,0,0,.123,1.187,5.7,5.7,0,0,0,.409,1.31s-1.761,7.247-2.088,8.517a17.066,17.066,0,0,0-.041,5.937.2.2,0,0,0,.369.082,16.5,16.5,0,0,0,2.907-5.118c.2-.7,1.147-4.3,1.147-4.3a4.713,4.713,0,0,0,3.931,1.924c4.217,0,7.329-3.03,8.353-7.452a13.738,13.738,0,0,0,.369-3.235C433.7,4.3,429.648,0,423.506,0Z" transform="translate(4350.735 2604.924)"/>
</svg>
