<svg xmlns="http://www.w3.org/2000/svg" viewBox="4640.922 2607.667 27.229 21.783">
  <defs>
    <style>
      .cls-1 {
        fill: #4e4e4e;
      }
    </style>
  </defs>
  <path id="XMLID_1_" class="cls-1" d="M141.729,9.239a10.536,10.536,0,0,1-3.194.86,5.608,5.608,0,0,0,2.457-3.03A11.285,11.285,0,0,1,137.43,8.42a5.592,5.592,0,0,0-4.054-1.72,5.531,5.531,0,0,0-5.569,5.487,6.358,6.358,0,0,0,.123,1.269,16.093,16.093,0,0,1-11.506-5.732,5.3,5.3,0,0,0-.737,2.743,5.545,5.545,0,0,0,2.5,4.586,6.027,6.027,0,0,1-2.539-.7v.082a5.464,5.464,0,0,0,4.463,5.4,5.572,5.572,0,0,1-1.474.2,9.317,9.317,0,0,1-1.065-.082,5.577,5.577,0,0,0,5.2,3.808,11.279,11.279,0,0,1-6.92,2.334c-.45,0-.9-.041-1.351-.082a15.967,15.967,0,0,0,8.558,2.457A15.475,15.475,0,0,0,138.535,16.2a15.248,15.248,0,0,0,.368-3.317v-.7A12.019,12.019,0,0,0,141.729,9.239Z" transform="translate(4526.422 2600.967)"/>
</svg>
