<svg xmlns="http://www.w3.org/2000/svg" viewBox="4702.299 2608.527 27.147 19.981">
  <defs>
    <style>
      .cls-1 {
        fill: #4e4e4e;
      }
    </style>
  </defs>
  <path id="Path_5" data-name="Path 5" class="cls-1" d="M291.26,13.1a6.177,6.177,0,0,0-1.065-2.825,3.6,3.6,0,0,0-2.7-1.187c-3.808-.287-9.5-.287-9.5-.287h0s-5.691,0-9.5.287a4.036,4.036,0,0,0-2.743,1.187,6.177,6.177,0,0,0-1.065,2.825,42.369,42.369,0,0,0-.287,4.586v2.17a42.368,42.368,0,0,0,.287,4.586,6.177,6.177,0,0,0,1.065,2.825,4.418,4.418,0,0,0,2.989,1.228c2.17.2,9.254.287,9.254.287s5.691,0,9.5-.287a3.891,3.891,0,0,0,2.7-1.187,6.177,6.177,0,0,0,1.065-2.825,42.373,42.373,0,0,0,.287-4.586v-2.17A42.631,42.631,0,0,0,291.26,13.1ZM282.5,18.5l-7.329,3.972V14.532l3.317,1.8Z" transform="translate(4437.899 2599.727)"/>
</svg>
